<svg width="39" height="39" viewBox="0 0 39 39" fill="none" xmlns="http://www.w3.org/2000/svg">
<path d="M18.1969 9.17992C13.5051 9.7104 9.66971 13.464 9.09851 18.1559C8.60899 22.2359 10.5267 25.9487 13.5867 28.0295C14.4026 28.56 14.8924 29.4577 14.8924 30.4366L14.8918 31.2936H23.7454V30.4777C23.7454 29.5393 24.1942 28.6007 25.0102 28.0705C27.8254 26.2346 29.6614 23.0522 29.6614 19.4209C29.7023 13.3417 24.4392 8.48654 18.1966 9.18014L18.1969 9.17992Z" fill="white"/>
<path d="M14.9326 35.8223C14.9326 36.1895 15.0957 36.5159 15.3814 36.7607L16.6462 37.8214C16.8502 37.9845 17.1357 38.1071 17.4214 38.1071H21.3384C21.6241 38.1071 21.9096 38.0254 22.1137 37.8214L23.3784 36.7607C23.6641 36.5159 23.8272 36.1895 23.8272 35.8223V33.5376H14.9328L14.9326 35.8223Z" fill="white"/>
<path d="M19.38 5.9976C20.0735 5.9976 20.6447 5.42641 20.6447 4.73287V1.26473C20.6447 0.571164 20.0735 0 19.38 0C18.6864 0 18.1152 0.571185 18.1152 1.26473V4.69185C18.1152 5.4264 18.6457 5.9976 19.38 5.9976Z" fill="white"/>
<path d="M10.9345 7.34401C11.1793 7.75213 11.5874 7.99688 12.0362 7.99688C12.2403 7.99688 12.485 7.95618 12.6481 7.8338C13.26 7.46667 13.464 6.6914 13.0969 6.1202L11.3833 3.14187C11.0162 2.52999 10.2409 2.32595 9.66971 2.69306C9.05782 3.06019 8.85378 3.83546 9.22089 4.40666L10.9345 7.34401Z" fill="white"/>
<path d="M3.06039 11.4649L6.03871 13.1785C6.24277 13.3008 6.44683 13.3415 6.6506 13.3415C7.09941 13.3415 7.50754 13.0968 7.75227 12.6887C8.1194 12.0768 7.87465 11.3015 7.30346 10.9751L4.32513 9.26175C3.71324 8.89462 2.938 9.13938 2.61153 9.71057C2.24439 10.3225 2.44845 11.0977 3.06034 11.4648L3.06039 11.4649Z" fill="white"/>
<path d="M5.95687 19.4207C5.95687 18.7272 5.38569 18.156 4.69215 18.156H1.26473C0.571164 18.156 0 18.7272 0 19.4207C0 20.1143 0.571185 20.6855 1.26473 20.6855H4.69185C5.4264 20.6855 5.95687 20.1143 5.95687 19.4207Z" fill="white"/>
<path d="M6.03866 25.6632L3.06033 27.3768C2.44845 27.7439 2.2444 28.5192 2.61152 29.0904C2.85627 29.4985 3.26438 29.7433 3.71319 29.7433C3.91725 29.7433 4.162 29.7026 4.32507 29.5802L7.3034 27.8666C7.91528 27.4995 8.11933 26.7242 7.75221 26.153C7.42606 25.5001 6.65083 25.2961 6.03861 25.6632L6.03866 25.6632Z" fill="white"/>
<path d="M35.6998 27.3359L32.7214 25.6223C32.1096 25.2552 31.3343 25.5 31.0078 26.0712C30.6407 26.683 30.8855 27.4583 31.4567 27.7848L34.435 29.4984C34.639 29.6207 34.8431 29.6614 35.0469 29.6614C35.4957 29.6614 35.9038 29.4167 36.1485 29.0086C36.5157 28.4784 36.3116 27.7031 35.6997 27.336L35.6998 27.3359Z" fill="white"/>
<path d="M37.4956 18.1152H34.0684C33.3749 18.1152 32.8037 18.6864 32.8037 19.38C32.8037 20.0735 33.3749 20.6447 34.0684 20.6447H37.4956C38.1891 20.6447 38.7603 20.0735 38.7603 19.38C38.7603 18.6864 38.1891 18.1152 37.4956 18.1152Z" fill="white"/>
<path d="M32.0687 13.3008C32.2728 13.3008 32.5175 13.2601 32.6806 13.1377L35.6589 11.4241C36.2708 11.0569 36.4748 10.2817 36.1077 9.71048C35.7406 9.09859 34.9653 8.89455 34.3941 9.26166L31.4158 10.9753C30.8039 11.3424 30.5999 12.1177 30.967 12.6889C31.2117 13.0967 31.6199 13.3007 32.0687 13.3007L32.0687 13.3008Z" fill="white"/>
<path d="M26.0711 7.79276C26.2752 7.91513 26.4792 7.95583 26.683 7.95583C27.1318 7.95583 27.54 7.71108 27.7847 7.30297L29.4983 4.32464C29.8654 3.71276 29.6207 2.93751 29.0495 2.61104C28.4376 2.2439 27.6623 2.44796 27.3359 3.05985L25.6223 6.03818C25.2551 6.65035 25.4592 7.42531 26.0711 7.79273L26.0711 7.79276Z" fill="white"/>
</svg>
