<svg width="262" height="396" viewBox="0 0 262 396" fill="none" xmlns="http://www.w3.org/2000/svg">
<path d="M159.076 128.225C156.882 123.465 147.776 99.6964 142.151 87.9742C140.556 84.6517 136.901 83.1267 133.309 83.9503C120.373 86.9164 105.547 90.7787 96.2959 94.984L101.796 107.114C102.509 108.686 101.751 110.534 100.14 111.153L87.2127 116.122C90.2626 124.072 103.696 157.674 108.174 165.637L108.353 165.956C112.415 173.182 113.746 175.55 118.946 175.64C122.722 175.705 145.818 166.666 163.559 159.079C167.156 157.54 169.044 153.865 167.781 150.162C165.559 143.65 161.76 134.045 159.076 128.225Z" stroke="#111111"/>
<path d="M86.5927 116.413L96.002 94.9997C97.7448 98.5017 101.611 105.896 101.995 107.503C102.379 109.111 101.054 110.552 100.343 111.072L86.5927 116.413Z" fill="#111111"/>
<path d="M139.004 108.5L115.595 117.073" stroke="black"/>
<path d="M107.502 118.5L104.029 124.142C103.738 124.615 103.118 124.76 102.647 124.466L99.502 122.5" stroke="black"/>
<path d="M112.502 129.5L109.029 135.142C108.738 135.615 108.118 135.76 107.647 135.466L104.502 133.5" stroke="black"/>
<path d="M118.502 141.5L115.029 147.142C114.738 147.615 114.118 147.76 113.647 147.466L110.502 145.5" stroke="black"/>
<path d="M124.502 154.5L121.029 160.142C120.738 160.615 120.118 160.76 119.647 160.466L116.502 158.5" stroke="black"/>
<path d="M102.643 98.6842L101.48 96.4155" stroke="black" stroke-width="0.5"/>
<path d="M162.15 154.568L161.812 151.545" stroke="black" stroke-width="0.5"/>
<path d="M160.498 156.076L160.434 154.015" stroke="black" stroke-width="0.5"/>
<path d="M104.567 98.1384L103.404 95.8697" stroke="black" stroke-width="0.5"/>
<path d="M106.491 97.5927L106.082 96.1497" stroke="black" stroke-width="0.5"/>
<path d="M144.503 121L120.199 129.156" stroke="black"/>
<path d="M150.003 133.5L125.512 141.859" stroke="black"/>
<path d="M155.003 145.5L130.512 153.859" stroke="black"/>
<path d="M190.766 194.202C194.595 188.261 201.389 173.292 197.934 160.941C194.48 148.589 182.356 141.309 176.726 139.213" stroke="#111111"/>
<path d="M181.087 197.405L172.177 187.979" stroke="black"/>
<path d="M218.502 303.5L206.176 309.978" stroke="black"/>
<path d="M111.441 64.5758C110.724 63.5075 108.685 61.7491 106.261 63.2622C103.837 64.7753 104.461 67.6379 105.076 68.8801C104.261 68.2799 102.116 67.3014 100.058 68.1886C97.9997 69.0758 98.7154 71.782 99.3305 73.0242C98.1894 72.5821 95.7475 72.2706 95.1088 74.5604C94.47 76.8503 95.5231 78.1413 96.1295 78.5006" stroke="black"/>
<path d="M203.242 244.249C203.812 242.877 204.22 239.825 201.293 238.599C198.366 237.372 196.041 239.856 195.244 241.25C195.309 240.099 194.913 237.469 192.805 236.163C190.696 234.857 188.575 237.32 187.778 238.715C187.493 237.368 186.283 234.909 183.721 235.847C181.159 236.784 180.586 238.615 180.62 239.413" stroke="black"/>
<path d="M177.089 316.606C177.034 314.129 176.349 309.073 174.053 308.667C171.756 308.26 175.12 313.79 177.089 316.606Z" fill="#111111"/>
<path d="M173.128 315.578C171.98 313.382 169.125 309.154 166.886 309.808C164.647 310.462 170.114 313.927 173.128 315.578Z" fill="#111111"/>
<rect width="6" height="6" rx="1" transform="matrix(-0.940123 -0.340836 -0.340836 0.940123 196.113 299.761)" stroke="black"/>
<rect width="6" height="6" rx="1" transform="matrix(-0.940123 -0.340836 -0.340836 0.940123 167.506 79.6519)" stroke="black"/>
<path d="M0.595219 90.1175C9.73481 76.6404 39.505 67.1433 60.0945 67.6948C80.6841 68.2464 95.9369 78.7217 95.9369 78.7217" stroke="#111111"/>
<ellipse rx="3.74486" ry="5.61729" transform="matrix(-0.810705 -0.585455 -0.585455 0.810705 219.248 184.779)" stroke="#111111"/>
<ellipse rx="3.74486" ry="5.61729" transform="matrix(0.633271 0.77393 0.77393 -0.633271 73.5138 141.833)" stroke="#111111"/>
<path d="M151.612 240.151C152.989 239.04 154.923 239.152 155.931 240.402C156.94 241.652 156.641 243.566 155.263 244.677C153.886 245.788 151.952 245.676 150.944 244.426" stroke="#111111"/>
<rect width="55" height="7" transform="matrix(-0.973959 0.226725 0.226725 0.973959 218.574 203.733)" fill="#111111"/>
<path d="M215.502 211L216.502 215.5L197.002 219" stroke="black"/>
<path d="M165.243 218.44L210.003 208.5" stroke="#FFF8EF" stroke-width="0.5"/>
<path d="M214.521 207.731L214.161 206.192" stroke="#FFF8EF" stroke-width="0.5"/>
<path d="M212.82 208.78L212.46 207.24" stroke="#FFF8EF" stroke-width="0.5"/>
<path d="M219.82 209.089L225.664 207.729C226.74 207.478 227.409 206.403 227.159 205.328L227.079 204.985C226.816 203.854 225.649 203.184 224.54 203.527L219.887 204.967" stroke="black"/>
<path d="M166.966 222.42L159.479 222.298C158.537 222.283 158.137 221.093 158.878 220.512L163.171 217.143" stroke="black"/>
<path d="M180.784 238.369C178.765 244.612 169.89 259.177 150.538 267.488C126.348 277.877 116.082 299.891 125.118 314.535C133.44 328.022 149.695 330.647 160.443 331.049" stroke="black"/>
<path d="M233.468 368.005C235.114 363.591 236.422 357.721 237.598 351.706C238.334 347.94 236.549 344.14 233.26 342.164C222.169 335.5 211.673 328.445 201.468 325.118C189.582 321.244 184.788 326.522 183.877 329.646C180.313 337.504 172.941 354.929 171.964 361.762C170.744 370.303 170.002 371.104 174.004 374.814C177.068 377.654 202.363 385.564 221.904 392.124C223.472 392.65 225.157 392.12 225.812 390.602C227.91 385.738 230.603 375.69 233.468 368.005Z" stroke="#111111"/>
<path d="M158 351C161 346 185 327 185 327C183 331.5 178.299 342.4 175.499 350C172.699 357.6 171.332 363.166 170.999 365C167.832 364.166 163 363 159 361C155 359 154.999 356 158 351Z" fill="#111111"/>
<path d="M176 359.999C174.834 363.999 173.9 372.199 179.5 372.999" stroke="black" stroke-width="0.5"/>
<path d="M189.002 331.499L190 328" stroke="black" stroke-width="0.5"/>
<path d="M232.5 354.999L233 353" stroke="black" stroke-width="0.5"/>
<path d="M229.5 362L230 358" stroke="black" stroke-width="0.5"/>
<path d="M181.5 375L182 373" stroke="black" stroke-width="0.5"/>
<path d="M183.5 375.999L184 374" stroke="black" stroke-width="0.5"/>
<path d="M198.738 330.459C201.201 331.708 204.21 330.725 205.46 328.263C206.709 325.8 205.726 322.791 203.263 321.541C200.801 320.292 197.792 321.275 196.542 323.737" stroke="#111111"/>
<path d="M214.362 337.248C216.708 338.704 219.79 337.983 221.247 335.637C222.704 333.291 221.983 330.209 219.637 328.752C217.29 327.296 214.208 328.017 212.751 330.363" stroke="#111111"/>
<path d="M229.362 346.248C231.708 347.704 234.79 346.983 236.247 344.637C237.704 342.291 236.983 339.209 234.637 337.752C232.29 336.296 229.208 337.017 227.751 339.363" stroke="#111111"/>
<ellipse cx="195.566" cy="345.231" rx="3.82789" ry="5.26335" transform="rotate(12.6377 195.566 345.231)" fill="#111111"/>
<ellipse cx="208.964" cy="350.973" rx="3.82789" ry="5.26335" transform="rotate(12.6377 208.964 350.973)" fill="#111111"/>
<ellipse cx="222.361" cy="356.715" rx="3.82789" ry="5.26335" transform="rotate(12.6377 222.361 356.715)" fill="#111111"/>
<ellipse cx="190.781" cy="360.543" rx="3.82789" ry="5.26335" transform="rotate(12.6377 190.781 360.543)" fill="#111111"/>
<ellipse cx="204.179" cy="366.285" rx="3.82789" ry="5.26335" transform="rotate(12.6377 204.179 366.285)" fill="#111111"/>
<ellipse cx="217.576" cy="372.027" rx="3.82789" ry="5.26335" transform="rotate(12.6377 217.576 372.027)" fill="#111111"/>
</svg>
