<svg width="35" height="30" viewBox="0 0 35 30" fill="none" xmlns="http://www.w3.org/2000/svg">
<path d="M2.09861 18.56C0.751468 16.7604 0.0160937 14.5767 0 12.3286C0 5.51988 6.84592 0 15.2904 0C23.7349 0 30.5808 5.51981 30.5808 12.3286C30.5808 19.1373 23.7349 24.6572 15.2904 24.6572C12.7028 24.6691 10.1428 24.1271 7.78246 23.0676L0.654568 25.4332C0.476009 25.4924 0.279219 25.4459 0.146094 25.3128C0.0132333 25.1796 -0.0335195 24.9831 0.0259123 24.8046L2.09861 18.56ZM15.2907 26.172C14.3163 26.171 13.3432 26.0999 12.379 25.9597C14.6512 28.0377 17.9752 29.3502 21.6809 29.3502C23.7793 29.36 25.8552 28.9202 27.7694 28.061L33.5494 29.9794H33.5497C33.6945 30.0275 33.854 29.9897 33.962 29.882C34.0698 29.7739 34.1076 29.6144 34.0595 29.4696L32.3788 24.406H32.3791C33.4713 22.9463 34.0678 21.1756 34.0807 19.3527C34.0609 17.3167 33.3237 15.3531 31.9984 13.8073C31.0998 20.7479 23.9502 26.1724 15.2907 26.1724L15.2907 26.172Z" fill="white"/>
</svg>
