<svg width="39" height="35" viewBox="0 0 39 35" fill="none" xmlns="http://www.w3.org/2000/svg">
<path fill-rule="evenodd" clip-rule="evenodd" d="M16.6597 25.7916H38.1676C38.0722 25.1427 37.7575 24.3987 37.2707 23.6255C35.6965 21.1256 32.4234 18.4156 29.1315 17.4615L28.2538 17.2135L29.0077 16.7079C30.0097 16.0306 30.84 15.1241 31.4027 14.065C31.9562 13.0347 32.2613 11.8705 32.2613 10.6297C32.2613 8.59743 31.431 6.7652 30.0856 5.43902C28.7402 4.10323 26.8892 3.2825 24.8282 3.2825C23.4161 3.2825 22.0898 3.67386 20.954 4.36076C20.458 4.66627 19.9904 5.02888 19.5703 5.43902C18.2345 6.7653 17.4042 8.59753 17.4042 10.6297C17.4042 11.8701 17.7097 13.0343 18.2536 14.065C18.2823 14.1033 18.3011 14.1509 18.3299 14.1892C18.3299 14.1988 18.3394 14.2084 18.3394 14.2179C18.9025 15.2103 19.7041 16.0689 20.6485 16.7083L21.4116 17.2138L20.5339 17.4618C18.8642 17.9486 17.1941 18.8835 15.7532 20.0189C16.6118 20.8396 17.1369 21.9749 17.1369 23.2248C17.1369 23.9976 17.0032 24.7707 16.7456 25.5339C16.7168 25.6198 16.6885 25.7056 16.6597 25.7915L16.6597 25.7916ZM12.4325 18.6828C13.4153 18.6828 14.3218 18.9787 15.0755 19.4747C16.4209 18.3965 17.9476 17.4803 19.5122 16.9081C18.6915 16.2308 18.0143 15.4006 17.5082 14.4557C16.8976 13.3108 16.5446 12.0129 16.5446 10.6295C16.5446 8.35843 17.4703 6.31651 18.9778 4.82819C19.4455 4.37014 19.9702 3.96 20.5333 3.61652C19.1404 1.44088 16.688 0 13.8921 0C9.55077 0 6.03935 3.48269 6.03935 7.77651C6.03935 10.4482 7.40396 12.8052 9.47461 14.2076C6.79332 14.9804 4.12175 16.8984 2.31825 18.9307C2.80505 18.7686 3.32022 18.6827 3.85451 18.6827C5.02816 18.6827 5.91554 18.9691 6.65991 19.5413C7.22299 19.9802 7.69983 20.5716 8.13872 21.3256C8.58719 20.5716 9.05483 19.9802 9.62714 19.5413C10.3715 18.9687 11.2589 18.6827 12.4325 18.6827L12.4325 18.6828ZM14.5602 27.9573C15.1041 27.1463 15.543 26.3352 15.8389 25.5337C16.1253 24.7609 16.2874 23.9974 16.2874 23.2246C16.2874 22.2131 15.8581 21.2878 15.1616 20.6197C15.1424 20.6005 15.1233 20.5814 15.0949 20.5626C14.9899 20.4672 14.8849 20.3717 14.7611 20.2859C14.6465 20.2 14.5227 20.1237 14.3985 20.0475C13.8166 19.7232 13.1484 19.5419 12.4328 19.5419C11.4596 19.5419 10.7344 19.7615 10.143 20.2192C9.53237 20.6868 9.02638 21.4217 8.52083 22.3948L8.13905 23.12L7.76686 22.3948C7.26128 21.4216 6.75531 20.6868 6.14472 20.2192C5.55328 19.7611 4.82805 19.5419 3.85489 19.5419C2.78624 19.5419 1.82258 19.952 1.12617 20.6201C1.05947 20.6868 0.992382 20.7539 0.925695 20.8302C0.353022 21.4696 0 22.309 0 23.2251C0 25.1812 1.03031 27.1563 2.5858 29.1507C4.10295 31.0875 6.10683 33.0436 8.13913 35C10.181 33.044 12.1849 31.0879 13.7021 29.1507C13.7879 29.0361 13.8738 28.9219 13.9597 28.8073C14.0647 28.6643 14.1697 28.5305 14.2652 28.3875C14.3702 28.2446 14.4656 28.1012 14.5611 27.9582L14.5602 27.9573Z" fill="white"/>
</svg>
