<svg width="80" height="80" viewBox="0 0 80 80" fill="none" xmlns="http://www.w3.org/2000/svg">
<rect width="80" height="80" rx="40" fill="#E43535"/>
<g clip-path="url(#clip0_4583_60797)">
<path d="M41.1551 28.0001L53.8565 50.0001C53.9735 50.2028 54.0351 50.4327 54.0351 50.6668C54.0351 50.9008 53.9735 51.1307 53.8565 51.3334C53.7394 51.5361 53.5711 51.7044 53.3684 51.8215C53.1658 51.9385 52.9358 52.0001 52.7018 52.0001H27.2991C27.0651 52.0001 26.8352 51.9385 26.6325 51.8215C26.4298 51.7044 26.2615 51.5361 26.1444 51.3334C26.0274 51.1307 25.9658 50.9008 25.9658 50.6668C25.9658 50.4327 26.0274 50.2028 26.1445 50.0001L38.8458 28.0001C38.9628 27.7974 39.1311 27.6291 39.3338 27.5121C39.5365 27.3951 39.7664 27.3335 40.0005 27.3335C40.2345 27.3335 40.4644 27.3951 40.6671 27.5121C40.8698 27.6291 41.0381 27.7974 41.1551 28.0001ZM38.6671 45.3334V48.0001H41.3338V45.3334H38.6671ZM38.6671 36.0001V42.6668H41.3338V36.0001H38.6671Z" fill="white"/>
</g>
<defs>
<clipPath id="clip0_4583_60797">
<rect width="32" height="32" fill="white" transform="translate(24 24)"/>
</clipPath>
</defs>
</svg>
