<?xml version="1.0" encoding="UTF-8"?>
<!DOCTYPE svg PUBLIC "-//W3C//DTD SVG 1.1//EN" "http://www.w3.org/Graphics/SVG/1.1/DTD/svg11.dtd">
<svg xmlns="http://www.w3.org/2000/svg" version="1.1" width="1024px" height="1024px" style="shape-rendering:geometricPrecision; text-rendering:geometricPrecision; image-rendering:optimizeQuality; fill-rule:evenodd; clip-rule:evenodd" xmlns:xlink="http://www.w3.org/1999/xlink">
<g><path style="opacity:0.979" fill="#0f3839" d="M 509.5,276.5 C 585.002,275.478 634.169,310.811 657,382.5C 673.655,451.208 654.488,507.374 599.5,551C 564.559,577.309 526.226,597.642 484.5,612C 475.347,614.784 466.014,615.784 456.5,615C 450.839,613.18 448.672,609.347 450,603.5C 452.691,597.803 456.525,592.97 461.5,589C 468.5,584.667 475.5,580.333 482.5,576C 505.659,563.921 528.659,551.588 551.5,539C 576.155,524.679 594.988,504.846 608,479.5C 622.36,443.208 620.36,407.875 602,373.5C 581.615,342.641 552.948,327.974 516,329.5C 479.44,331.443 450.107,346.776 428,375.5C 417.735,393.156 413.735,412.156 416,432.5C 420.343,466.541 432.343,497.541 452,525.5C 452.475,538.594 451.642,551.594 449.5,564.5C 416.455,540.923 393.955,509.589 382,470.5C 366.727,421.232 373.727,375.565 403,333.5C 430.931,300.45 466.431,281.45 509.5,276.5 Z"/></g>
<g><path style="opacity:0.969" fill="#ea801e" d="M 481.5,387.5 C 510.738,406.724 539.738,426.391 568.5,446.5C 569.521,447.002 569.688,447.668 569,448.5C 540.123,461.354 511.289,474.354 482.5,487.5C 481.5,454.173 481.167,420.84 481.5,387.5 Z"/></g>
<g><path style="opacity:0.963" fill="#0f3839" d="M 560.5,631.5 C 573.342,629.243 580.008,634.576 580.5,647.5C 579.954,652.869 577.287,656.702 572.5,659C 542.415,665.217 512.249,671.05 482,676.5C 471.181,674.221 466.848,667.555 469,656.5C 470.442,652.725 472.942,649.892 476.5,648C 504.695,642.794 532.695,637.294 560.5,631.5 Z"/></g>
<g><path style="opacity:0.962" fill="#0f3839" d="M 561.5,675.5 C 574.883,674.717 581.049,681.05 580,694.5C 578.911,698.186 576.745,701.019 573.5,703C 543.1,709.317 512.6,715.15 482,720.5C 471.197,718.26 466.864,711.594 469,700.5C 470.5,696.333 473.333,693.5 477.5,692C 505.695,686.794 533.695,681.294 561.5,675.5 Z"/></g>
</svg>
